<svg width="20" height="20" viewBox="0 0 20 20" fill="none" xmlns="http://www.w3.org/2000/svg">
<circle cx="10" cy="10" r="9.5" stroke="black"/>
<path d="M10 10C8.34416 10 7 8.65582 7 6.99997C7 5.34412 8.34416 4 10 4C11.6558 4 13 5.34412 13 6.99997C13 8.65582 11.6558 10 10 10ZM10 5.46105C9.1526 5.46105 8.46104 6.15256 8.46104 6.99997C8.46104 7.84738 9.1526 8.53895 10 8.53895C10.8474 8.53895 11.539 7.84738 11.539 6.99997C11.539 6.15256 10.8474 5.46105 10 5.46105Z" fill="black"/>
<path d="M14.2105 15C13.7789 15 13.4211 14.7143 13.4211 14.3697C13.4211 13.2101 11.8842 12.2605 10 12.2605C8.11579 12.2605 6.57895 13.2101 6.57895 14.3697C6.57895 14.7143 6.22105 15 5.78947 15C5.35789 15 5 14.7143 5 14.3697C5 12.5126 7.24211 11 10 11C12.7579 11 15 12.5126 15 14.3697C15 14.7143 14.6421 15 14.2105 15Z" fill="black"/>
</svg>
