<svg width="36" height="36" viewBox="0 0 36 36" fill="none" xmlns="http://www.w3.org/2000/svg">
<path d="M4.75781 11.1602L18.0028 18.8251L31.1578 11.2051" stroke="#1542E0" stroke-width="2.5" stroke-linecap="round" stroke-linejoin="round"/>
<path d="M18.0039 32.4136V18.8086" stroke="#1542E0" stroke-width="2.5" stroke-linecap="round" stroke-linejoin="round"/>
<path d="M14.8959 3.72L6.88591 8.17505C5.07091 9.18005 3.58594 11.7 3.58594 13.77V22.2451C3.58594 24.3151 5.07091 26.835 6.88591 27.84L14.8959 32.2951C16.6059 33.2401 19.4109 33.2401 21.1209 32.2951L29.1309 27.84C30.9459 26.835 32.4309 24.3151 32.4309 22.2451V13.77C32.4309 11.7 30.9459 9.18005 29.1309 8.17505L21.1209 3.72C19.3959 2.76 16.6059 2.76 14.8959 3.72Z" stroke="#1542E0" stroke-width="2.5" stroke-linecap="round" stroke-linejoin="round"/>
<path d="M25.5006 19.8585V14.3685L11.2656 6.14844" stroke="#1542E0" stroke-width="2.5" stroke-linecap="round" stroke-linejoin="round"/>
</svg>
