<svg width="68" height="58" viewBox="0 0 68 58" fill="none" xmlns="http://www.w3.org/2000/svg">
<path d="M26.3391 55.8651H16.6641C7.81328 55.8651 4.05078 52.2605 4.05078 43.8384V36.168C4.05078 35.4676 4.65995 34.8867 5.39453 34.8867C6.12911 34.8867 6.73828 35.4676 6.73828 36.168V43.8384C6.73828 50.8255 9.3362 53.3026 16.6641 53.3026H26.3212C33.6491 53.3026 36.247 50.8255 36.247 43.8384V36.168C36.247 35.4676 36.8562 34.8867 37.5908 34.8867C38.3254 34.8867 38.9345 35.4676 38.9345 36.168V43.8384C38.9524 52.2605 35.172 55.8651 26.3391 55.8651Z" fill="#1542E0"/>
<path d="M21.4997 38.7826C19.5289 38.7826 17.7372 38.048 16.4651 36.6984C15.1931 35.3488 14.6018 33.5892 14.7989 31.7101L15.9993 20.2984C16.071 19.6492 16.6443 19.1367 17.3431 19.1367H25.7101C26.4089 19.1367 26.9822 19.6321 27.0539 20.2984L28.2543 31.7101C28.4514 33.5892 27.8601 35.3488 26.5881 36.6984C25.2622 38.048 23.4706 38.7826 21.4997 38.7826ZM18.5435 21.6992L17.4685 31.9663C17.3431 33.1109 17.7014 34.1871 18.4539 34.973C19.9768 36.5788 23.0226 36.5788 24.5456 34.973C25.2981 34.1701 25.6564 33.0938 25.531 31.9663L24.456 21.6992H18.5435Z" fill="#1542E0"/>
<path d="M32.8055 38.7826C29.1684 38.7826 25.9255 35.9809 25.5493 32.5301L24.2951 20.5546C24.2593 20.1959 24.3847 19.8371 24.6355 19.5638C24.8863 19.2905 25.2447 19.1367 25.6388 19.1367H31.1034C36.3709 19.1367 38.8255 21.238 39.5601 26.3971L40.0618 31.1463C40.2768 33.1621 39.6317 35.0755 38.2522 36.5276C36.8726 37.9796 34.9376 38.7826 32.8055 38.7826ZM27.1259 21.6992L28.2368 32.2738C28.4697 34.4092 30.548 36.2201 32.8055 36.2201C34.1672 36.2201 35.3855 35.7246 36.2634 34.8192C37.1234 33.9138 37.5176 32.7009 37.3922 31.4026L36.8905 26.7046C36.3351 22.8438 35.0272 21.6992 31.1034 21.6992H27.1259V21.6992Z" fill="#1542E0"/>
<path d="M10.1054 38.7826C7.97332 38.7826 6.03832 37.9796 4.65874 36.5276C3.27915 35.0755 2.63415 33.1621 2.84915 31.1463L3.3329 26.4484C4.0854 21.238 6.53999 19.1367 11.8075 19.1367H17.2721C17.6483 19.1367 18.0067 19.2905 18.2754 19.5638C18.5442 19.8371 18.6517 20.1959 18.6158 20.5546L17.3617 32.5301C16.9854 35.9809 13.7425 38.7826 10.1054 38.7826ZM11.8075 21.6992C7.88374 21.6992 6.57582 22.8267 6.00249 26.7388L5.51874 31.4026C5.3754 32.7009 5.78749 33.9138 6.64749 34.8192C7.50749 35.7246 8.72582 36.2201 10.1054 36.2201C12.3629 36.2201 14.4592 34.4092 14.6742 32.2738L15.785 21.6992H11.8075V21.6992Z" fill="#1542E0"/>
<path d="M25.9779 55.8659H17.0195C16.2849 55.8659 15.6758 55.2851 15.6758 54.5846V50.3138C15.6758 46.7263 17.7362 44.7617 21.4987 44.7617C25.2612 44.7617 27.3216 46.7263 27.3216 50.3138V54.5846C27.3216 55.2851 26.7124 55.8659 25.9779 55.8659ZM18.3633 53.3034H24.6341V50.3138C24.6341 48.1613 23.7562 47.3242 21.4987 47.3242C19.2412 47.3242 18.3633 48.1613 18.3633 50.3138V53.3034Z" fill="#1542E0"/>
<path d="M51.3391 38.8651H41.6641C32.8133 38.8651 29.0508 35.2605 29.0508 26.8384V19.168C29.0508 18.4676 29.6599 17.8867 30.3945 17.8867C31.1291 17.8867 31.7383 18.4676 31.7383 19.168V26.8384C31.7383 33.8255 34.3362 36.3026 41.6641 36.3026H51.3212C58.6491 36.3026 61.247 33.8255 61.247 26.8384V19.168C61.247 18.4676 61.8562 17.8867 62.5908 17.8867C63.3254 17.8867 63.9345 18.4676 63.9345 19.168V26.8384C63.9524 35.2605 60.172 38.8651 51.3391 38.8651Z" fill="#1542E0"/>
<path d="M46.4997 21.7826C44.5289 21.7826 42.7372 21.048 41.4651 19.6984C40.1931 18.3488 39.6018 16.5892 39.7989 14.7101L40.9993 3.29839C41.071 2.64922 41.6443 2.13672 42.3431 2.13672H50.7101C51.4089 2.13672 51.9822 2.63214 52.0539 3.29839L53.2543 14.7101C53.4514 16.5892 52.8601 18.3488 51.5881 19.6984C50.2622 21.048 48.4706 21.7826 46.4997 21.7826ZM43.5435 4.69922L42.4685 14.9663C42.3431 16.1109 42.7014 17.1871 43.4539 17.973C44.9768 19.5788 48.0226 19.5788 49.5456 17.973C50.2981 17.1701 50.6564 16.0938 50.531 14.9663L49.456 4.69922H43.5435Z" fill="#1542E0"/>
<path d="M57.8055 21.7826C54.1684 21.7826 50.9255 18.9809 50.5493 15.5301L49.2951 3.55464C49.2593 3.19589 49.3847 2.83714 49.6355 2.5638C49.8863 2.29047 50.2447 2.13672 50.6388 2.13672H56.1034C61.3709 2.13672 63.8255 4.23797 64.5601 9.39714L65.0618 14.1463C65.2768 16.1621 64.6317 18.0755 63.2522 19.5276C61.8726 20.9796 59.9376 21.7826 57.8055 21.7826ZM52.1259 4.69922L53.2368 15.2738C53.4697 17.4092 55.548 19.2201 57.8055 19.2201C59.1672 19.2201 60.3855 18.7246 61.2634 17.8192C62.1234 16.9138 62.5176 15.7009 62.3922 14.4026L61.8905 9.70464C61.3351 5.8438 60.0272 4.69922 56.1034 4.69922H52.1259V4.69922Z" fill="#1542E0"/>
<path d="M35.1054 21.7826C32.9733 21.7826 31.0383 20.9796 29.6587 19.5276C28.2792 18.0755 27.6342 16.1621 27.8492 14.1463L28.3329 9.44839C29.0854 4.23797 31.54 2.13672 36.8075 2.13672H42.2721C42.6483 2.13672 43.0067 2.29047 43.2754 2.5638C43.5442 2.83714 43.6517 3.19589 43.6158 3.55464L42.3617 15.5301C41.9854 18.9809 38.7425 21.7826 35.1054 21.7826ZM36.8075 4.69922C32.8837 4.69922 31.5758 5.82672 31.0025 9.7388L30.5187 14.4026C30.3754 15.7009 30.7875 16.9138 31.6475 17.8192C32.5075 18.7246 33.7258 19.2201 35.1054 19.2201C37.3629 19.2201 39.4592 17.4092 39.6742 15.2738L40.785 4.69922H36.8075V4.69922Z" fill="#1542E0"/>
<path d="M50.9779 38.8659H42.0195C41.2849 38.8659 40.6758 38.2851 40.6758 37.5846V33.3138C40.6758 29.7263 42.7362 27.7617 46.4987 27.7617C50.2612 27.7617 52.3216 29.7263 52.3216 33.3138V37.5846C52.3216 38.2851 51.7124 38.8659 50.9779 38.8659ZM43.3633 36.3034H49.6341V33.3138C49.6341 31.1613 48.7562 30.3242 46.4987 30.3242C44.2412 30.3242 43.3633 31.1613 43.3633 33.3138V36.3034Z" fill="#1542E0"/>
</svg>
