<svg width="36" height="40" viewBox="0 0 36 40" fill="none" xmlns="http://www.w3.org/2000/svg">
<path d="M9.78366 7.02344H5.4594C3.54883 7.02344 2 8.52276 2 10.3723V33.8142C2 35.6637 3.54883 37.163 5.4594 37.163H15.8376" stroke="#1542E0" stroke-width="3" stroke-linecap="round"/>
<path d="M21.8906 7.02344H26.2149C28.1255 7.02344 29.6743 8.52276 29.6743 10.3723V25.4421" stroke="#1542E0" stroke-width="3" stroke-linecap="round"/>
<path d="M8.92188 11.0419V7.86047C8.92188 7.39809 9.30909 7.02326 9.78673 7.02326C10.2644 7.02326 10.6589 6.64826 10.7407 6.19271C10.997 4.76566 11.9903 2 15.8407 2C19.691 2 20.6844 4.76566 20.9407 6.19271C21.0225 6.64826 21.4171 7.02326 21.8946 7.02326C22.3722 7.02326 22.7595 7.39809 22.7595 7.86047V11.0419C22.7595 11.5967 22.2949 12.0465 21.7217 12.0465H9.9597C9.38653 12.0465 8.92188 11.5967 8.92188 11.0419Z" stroke="#1542E0" stroke-width="3" stroke-linecap="round"/>
<path d="M21.8906 34.6522L25.35 38.001L33.9985 29.6289" stroke="#1542E0" stroke-width="3" stroke-linecap="round" stroke-linejoin="round"/>
</svg>
