<svg width="61" height="61" viewBox="0 0 61 61" fill="none" xmlns="http://www.w3.org/2000/svg">
<path d="M38.1273 57.8229C37.441 57.8229 36.8056 57.4417 36.4752 56.8571C36.1448 56.2725 36.1448 55.5354 36.5006 54.9508L39.1694 50.5029C39.7031 49.5879 40.8723 49.3083 41.7873 49.842C42.7023 50.3758 42.9818 51.545 42.4481 52.46L41.7618 53.6038C48.7768 51.9517 54.0381 45.6483 54.0381 38.125C54.0381 37.0829 54.9023 36.2188 55.9443 36.2188C56.9864 36.2188 57.8506 37.0829 57.8506 38.125C57.8252 48.9779 48.9802 57.8229 38.1273 57.8229Z" fill="#1542E0"/>
<path d="M5.08203 24.7799C4.03995 24.7799 3.17578 23.9158 3.17578 22.8737C3.17578 12.0208 12.0208 3.17578 22.8737 3.17578C23.5599 3.17578 24.1953 3.55704 24.5258 4.14163C24.8562 4.72621 24.8562 5.46329 24.5004 6.04788L21.8316 10.4958C21.2979 11.4108 20.1287 11.6904 19.2137 11.1567C18.2987 10.6229 18.0191 9.45366 18.5529 8.53866L19.2391 7.39488C12.2241 9.04696 6.96288 15.3504 6.96288 22.8737C6.9883 23.9158 6.12411 24.7799 5.08203 24.7799Z" fill="#1542E0"/>
<path d="M44.9348 19.0614C44.6044 19.0614 44.274 18.9852 43.969 18.8073L33.8786 12.9613C32.9636 12.4275 32.6586 11.2585 33.1923 10.3435C33.7261 9.42846 34.8953 9.12341 35.7848 9.65716L44.9348 14.9439L54.0086 9.6826C54.9236 9.14885 56.0928 9.47932 56.6011 10.3689C57.1348 11.2839 56.8044 12.453 55.9148 12.9867L45.8753 18.7818C45.5957 18.9597 45.2652 19.0614 44.9348 19.0614Z" fill="#1542E0"/>
<path d="M44.9375 29.4052C43.8954 29.4052 43.0312 28.541 43.0312 27.499V17.1289C43.0312 16.0868 43.8954 15.2227 44.9375 15.2227C45.9796 15.2227 46.8438 16.0868 46.8438 17.1289V27.499C46.8438 28.5665 45.9796 29.4052 44.9375 29.4052Z" fill="#1542E0"/>
<path d="M44.937 29.8627C43.7678 29.8627 42.5733 29.6086 41.6329 29.0748L35.5329 25.6944C33.5504 24.6015 32.0508 22.0345 32.0508 19.7724V13.3165C32.0508 11.029 33.5504 8.48739 35.5583 7.36905L41.6583 3.98859C43.5391 2.94651 46.3604 2.94651 48.2666 3.98859L54.3666 7.36905C56.3491 8.46197 57.8487 11.0289 57.8487 13.291V19.747C57.8487 22.0345 56.3491 24.576 54.3666 25.6689L48.2666 29.0494C47.2754 29.6086 46.1062 29.8627 44.937 29.8627ZM43.4883 7.29273L37.3883 10.6732C36.6258 11.1053 35.8633 12.4014 35.8633 13.2656V19.7215C35.8633 20.6111 36.6258 21.9074 37.3883 22.3141L43.4883 25.7198C44.2254 26.1265 45.6487 26.1265 46.3858 25.7198L52.4858 22.3394C53.2483 21.9073 54.0108 20.6111 54.0108 19.747V13.291C54.0108 12.4014 53.2483 11.1053 52.4858 10.6986L46.3858 7.31817C45.6487 6.88609 44.1999 6.88606 43.4883 7.29273Z" fill="#1542E0"/>
<path d="M16.0638 47.0223C15.7333 47.0223 15.4029 46.9461 15.0979 46.7682L5.00749 40.9222C4.09249 40.3885 3.78748 39.2194 4.32123 38.3044C4.85498 37.3894 6.02416 37.0843 6.91374 37.6181L16.0638 42.9048L25.1375 37.6435C26.0525 37.1098 27.2217 37.4403 27.73 38.3298C28.2637 39.2448 27.9333 40.4139 27.0437 40.9477L17.0042 46.7427C16.7246 46.9207 16.3942 47.0223 16.0638 47.0223Z" fill="#1542E0"/>
<path d="M16.0625 57.3661C15.0204 57.3661 14.1562 56.502 14.1562 55.4599V45.0898C14.1562 44.0478 15.0204 43.1836 16.0625 43.1836C17.1046 43.1836 17.9688 44.0478 17.9688 45.0898V55.4599C17.9688 56.5274 17.13 57.3661 16.0625 57.3661Z" fill="#1542E0"/>
<path d="M16.062 57.8217C14.8929 57.8217 13.6983 57.5675 12.7579 57.0338L6.65785 53.6533C4.67535 52.5604 3.17578 49.9934 3.17578 47.7313V41.2754C3.17578 38.9879 4.67535 36.4462 6.65785 35.3533L12.7579 31.973C14.6387 30.9309 17.4854 30.9309 19.3662 31.973L25.4662 35.3533C27.4487 36.4462 28.9483 39.0133 28.9483 41.2754V47.7313C28.9483 50.0188 27.4487 52.5604 25.4408 53.6787L19.3408 57.0592C18.4258 57.5675 17.2566 57.8217 16.062 57.8217ZM14.6133 35.2517L8.5133 38.6321C7.7508 39.0642 6.98828 40.3603 6.98828 41.2245V47.6804C6.98828 48.57 7.7508 49.8663 8.5133 50.273L14.6133 53.6533C15.3504 54.06 16.7737 54.06 17.5108 53.6533L23.6108 50.273C24.3733 49.8409 25.1358 48.5446 25.1358 47.6804V41.2245C25.1358 40.3349 24.3733 39.0388 23.6108 38.6321L17.5108 35.2262C16.7991 34.845 15.3504 34.845 14.6133 35.2517Z" fill="#1542E0"/>
</svg>
