<svg width="36" height="36" viewBox="0 0 36 36" fill="none" xmlns="http://www.w3.org/2000/svg">
<path d="M29.655 20.625H23.595C20.58 20.625 19.125 19.23 19.125 16.35V6.15C19.125 3.27 20.595 1.875 23.595 1.875H29.655C32.67 1.875 34.125 3.27 34.125 6.15V16.35C34.125 19.23 32.655 20.625 29.655 20.625ZM23.595 4.125C21.69 4.125 21.375 4.635 21.375 6.15V16.35C21.375 17.865 21.69 18.375 23.595 18.375H29.655C31.56 18.375 31.875 17.865 31.875 16.35V6.15C31.875 4.635 31.56 4.125 29.655 4.125H23.595V4.125Z" fill="#113CFC"/>
<path d="M29.655 34.125H23.595C20.58 34.125 19.125 32.73 19.125 29.85V27.15C19.125 24.27 20.595 22.875 23.595 22.875H29.655C32.67 22.875 34.125 24.27 34.125 27.15V29.85C34.125 32.73 32.655 34.125 29.655 34.125ZM23.595 25.125C21.69 25.125 21.375 25.635 21.375 27.15V29.85C21.375 31.365 21.69 31.875 23.595 31.875H29.655C31.56 31.875 31.875 31.365 31.875 29.85V27.15C31.875 25.635 31.56 25.125 29.655 25.125H23.595Z" fill="#113CFC"/>
<path d="M12.405 34.125H6.345C3.33 34.125 1.875 32.73 1.875 29.85V19.65C1.875 16.77 3.345 15.375 6.345 15.375H12.405C15.42 15.375 16.875 16.77 16.875 19.65V29.85C16.875 32.73 15.405 34.125 12.405 34.125ZM6.345 17.625C4.44 17.625 4.125 18.135 4.125 19.65V29.85C4.125 31.365 4.44 31.875 6.345 31.875H12.405C14.31 31.875 14.625 31.365 14.625 29.85V19.65C14.625 18.135 14.31 17.625 12.405 17.625H6.345V17.625Z" fill="#113CFC"/>
<path d="M12.405 13.125H6.345C3.33 13.125 1.875 11.73 1.875 8.85V6.15C1.875 3.27 3.345 1.875 6.345 1.875H12.405C15.42 1.875 16.875 3.27 16.875 6.15V8.85C16.875 11.73 15.405 13.125 12.405 13.125ZM6.345 4.125C4.44 4.125 4.125 4.635 4.125 6.15V8.85C4.125 10.365 4.44 10.875 6.345 10.875H12.405C14.31 10.875 14.625 10.365 14.625 8.85V6.15C14.625 4.635 14.31 4.125 12.405 4.125H6.345V4.125Z" fill="#113CFC"/>
</svg>
