<svg width="38" height="38" viewBox="0 0 38 38" fill="none" xmlns="http://www.w3.org/2000/svg">
<path d="M6.31477 23.2125L3.90812 20.8058C2.92646 19.8242 2.92646 18.2091 3.90812 17.2275L6.31477 14.8208C6.72644 14.4091 7.05894 13.6016 7.05894 13.0316V9.62739C7.05894 8.23406 8.19895 7.0941 9.59229 7.0941H12.9964C13.5664 7.0941 14.374 6.76165 14.7856 6.34998L17.1923 3.94328C18.1739 2.96161 19.7889 2.96161 20.7706 3.94328L23.1773 6.34998C23.589 6.76165 24.3964 7.0941 24.9664 7.0941H28.3706C29.764 7.0941 30.9039 8.23406 30.9039 9.62739V13.0316C30.9039 13.6016 31.2364 14.4091 31.6481 14.8208L34.0548 17.2275C35.0365 18.2091 35.0365 19.8242 34.0548 20.8058L31.6481 23.2125C31.2364 23.6242 30.9039 24.4317 30.9039 25.0017V28.4057C30.9039 29.799 29.764 30.9392 28.3706 30.9392H24.9664C24.3964 30.9392 23.589 31.2716 23.1773 31.6833L20.7706 34.09C19.7889 35.0717 18.1739 35.0717 17.1923 34.09L14.7856 31.6833C14.374 31.2716 13.5664 30.9392 12.9964 30.9392H9.59229C8.19895 30.9392 7.05894 29.799 7.05894 28.4057V25.0017C7.05894 24.4159 6.72644 23.6084 6.31477 23.2125Z" stroke="#1542E0" stroke-width="2.5" stroke-linecap="round" stroke-linejoin="round"/>
<path d="M14.25 23.75L23.75 14.25" stroke="#1542E0" stroke-width="2.5" stroke-linecap="round" stroke-linejoin="round"/>
<path d="M22.9509 22.9596H22.9652" stroke="#1542E0" stroke-width="2.5" stroke-linecap="round" stroke-linejoin="round"/>
<path d="M15.033 15.0417H15.0472" stroke="#1542E0" stroke-width="2.5" stroke-linecap="round" stroke-linejoin="round"/>
</svg>
