<svg width="68" height="57" viewBox="0 0 68 57" fill="none" xmlns="http://www.w3.org/2000/svg">
<path d="M47.0198 5.29159H48.1084V10.8626H47.0198H17.7542H16.654V6.79159H17.7542H45.5082H47.0082H47.0198V5.29159ZM2.81096 55.5L16.6192 34.896L16.6261 34.8857L16.6328 34.8753C18.0098 32.7453 20.6781 32.2299 23.9372 32.317C23.9381 32.317 23.9391 32.3171 23.94 32.3171L43.9322 32.9219C45.2211 32.989 46.2312 34.105 46.1737 35.3253C46.1149 36.5677 45.0522 37.5819 43.7264 37.574L27.6815 37.0625C26.1226 36.965 24.8943 38.2116 24.8446 39.6997L24.8446 39.7003C24.7977 41.1218 25.8213 42.549 27.5352 42.5586L43.5263 43.0975C45.6909 43.2445 47.7291 42.4183 49.2202 40.9941L49.2372 40.9778L49.2537 40.9611C50.6936 39.4967 51.5355 37.5501 51.6399 35.5104C51.7101 34.8224 51.6605 34.1135 51.5115 33.4468L62.5293 23.0069C63.5014 22.1261 64.9555 22.1646 65.8527 23.0009C66.7859 24.0205 66.6677 25.4764 65.77 26.3061L65.7634 26.3122L65.7569 26.3183L46.7312 44.3276L46.7111 44.3466L46.6917 44.3664C44.7579 46.3372 41.8789 47.5919 38.9011 47.5235C38.8999 47.5234 38.8987 47.5234 38.8975 47.5234L24.9772 47.1285C22.8736 47.0689 20.798 47.7981 19.3101 49.241L19.2286 49.3201L19.1599 49.4106L14.5349 55.5H2.81096Z" stroke="#1542E0" stroke-width="3"/>
</svg>
