<svg width="36" height="36" viewBox="0 0 36 36" fill="none" xmlns="http://www.w3.org/2000/svg">
<path d="M27.0011 10.74C26.9111 10.725 26.8061 10.725 26.7161 10.74C24.6461 10.665 22.9961 8.97 22.9961 6.87C22.9961 4.725 24.7211 3 26.8661 3C29.0111 3 30.7361 4.74 30.7361 6.87C30.7211 8.97 29.0711 10.665 27.0011 10.74Z" stroke="#1542E0" stroke-width="2.5" stroke-linecap="round" stroke-linejoin="round"/>
<path d="M25.4552 21.6602C27.5102 22.0052 29.7752 21.6452 31.3652 20.5802C33.4802 19.1702 33.4802 16.8602 31.3652 15.4502C29.7602 14.3852 27.4652 14.0252 25.4102 14.3852" stroke="#1542E0" stroke-width="2.5" stroke-linecap="round" stroke-linejoin="round"/>
<path d="M8.95375 10.74C9.04375 10.725 9.14875 10.725 9.23875 10.74C11.3088 10.665 12.9587 8.97 12.9587 6.87C12.9587 4.725 11.2338 3 9.08875 3C6.94375 3 5.21875 4.74 5.21875 6.87C5.23375 8.97 6.88375 10.665 8.95375 10.74Z" stroke="#1542E0" stroke-width="2.5" stroke-linecap="round" stroke-linejoin="round"/>
<path d="M10.5002 21.6602C8.44515 22.0052 6.18016 21.6452 4.59016 20.5802C2.47516 19.1702 2.47516 16.8602 4.59016 15.4502C6.19516 14.3852 8.49015 14.0252 10.5452 14.3852" stroke="#1542E0" stroke-width="2.5" stroke-linecap="round" stroke-linejoin="round"/>
<path d="M17.9972 21.9431C17.9072 21.9281 17.8022 21.9281 17.7122 21.9431C15.6422 21.8681 13.9922 20.1731 13.9922 18.0731C13.9922 15.9281 15.7172 14.2031 17.8622 14.2031C20.0072 14.2031 21.7322 15.9431 21.7322 18.0731C21.7172 20.1731 20.0672 21.8831 17.9972 21.9431Z" stroke="#1542E0" stroke-width="2.5" stroke-linecap="round" stroke-linejoin="round"/>
<path d="M13.6331 26.6691C11.5181 28.0791 11.5181 30.3891 13.6331 31.7991C16.0331 33.4041 19.9631 33.4041 22.3631 31.7991C24.4781 30.3891 24.4781 28.0791 22.3631 26.6691C19.9781 25.0791 16.0331 25.0791 13.6331 26.6691Z" stroke="#1542E0" stroke-width="2.5" stroke-linecap="round" stroke-linejoin="round"/>
</svg>
