<svg width="57" height="80" viewBox="0 0 57 80" fill="none" xmlns="http://www.w3.org/2000/svg">
<rect x="2" y="2" width="41.2923" height="76" rx="3" stroke="#1542E0" stroke-width="4"/>
<path d="M9.90625 0H35.3832L33.0879 4.98966C32.7615 5.69921 32.052 6.15385 31.271 6.15385H14.0185C13.2375 6.15385 12.5279 5.69921 12.2015 4.98966L9.90625 0Z" fill="#C8D1EA"/>
<rect x="15.5703" y="72.3086" width="14.1538" height="3.07692" rx="1.53846" fill="#C8D1EA"/>
<path d="M15.7639 24.2514C15.871 22.9117 16.9198 21.8777 18.2465 21.6632C20.3874 21.3171 23.6334 20.7145 26.0469 19.9201C28.8011 19.0137 32.6393 17.1439 34.6823 16.11C35.5698 15.6609 36.617 15.6609 37.5045 16.11C39.5475 17.1439 43.3857 19.0137 46.1399 19.9201C48.5534 20.7145 51.7994 21.3171 53.9402 21.6632C55.267 21.8777 56.3157 22.9117 56.4228 24.2514C57.0396 31.9669 57.419 57.2192 36.9955 64.3163C36.4197 64.5163 35.7671 64.5163 35.1912 64.3163C14.7678 57.2192 15.1472 31.9669 15.7639 24.2514Z" fill="#C8D1EA"/>
<path fill-rule="evenodd" clip-rule="evenodd" d="M28.2704 53.6361C27.5217 52.8618 26.8501 52.0347 26.2481 51.1685L33.1176 23.0742C33.6766 22.7995 34.1969 22.5353 34.6411 22.3056C35.0731 22.0822 35.5442 21.9647 36.0173 21.9531L28.2704 53.6361ZM30.1612 24.4268L24.403 47.9764C22.8468 44.7198 22.0197 41.1852 21.6055 37.9412L24.5243 26.0038C25.908 25.7402 27.5285 25.3785 28.82 24.9382C29.2389 24.7955 29.6924 24.6208 30.1612 24.4268Z" fill="white"/>
<path d="M21.3309 28.7525C21.4174 27.4107 22.4627 26.3779 23.7866 26.1427C25.2987 25.8742 27.2884 25.4631 28.817 24.9421C30.6309 24.3237 33.0941 23.1078 34.6381 22.3094C35.5494 21.8382 36.6346 21.8382 37.5459 22.3094C39.0899 23.1078 41.5531 24.3237 43.367 24.9421C44.8956 25.4631 46.8853 25.8742 48.3974 26.1427C49.7213 26.3779 50.7666 27.4107 50.8531 28.7524C51.2602 35.0728 51.0885 52.8501 37.0168 58.1393C36.4268 58.361 35.7573 58.361 35.1672 58.1393C21.0955 52.8501 20.9238 35.0728 21.3309 28.7525Z" stroke="#336DFF" stroke-width="3"/>
</svg>
