<svg width="36" height="36" viewBox="0 0 36 36" fill="none" xmlns="http://www.w3.org/2000/svg">
<path d="M29.13 17.625H24C23.385 17.625 22.875 17.115 22.875 16.5V6.015C22.875 4.905 23.31 3.87 24.09 3.09C24.87 2.31 25.905 1.875 27.015 1.875H27.03C28.905 1.89 30.675 2.625 32.025 3.96C33.375 5.325 34.11 7.125 34.11 9V12.63C34.125 15.615 32.115 17.625 29.13 17.625ZM25.125 15.375H29.13C30.87 15.375 31.875 14.37 31.875 12.63V9C31.875 7.71 31.365 6.48 30.45 5.55C29.535 4.65 28.305 4.14 27.03 4.125C27.03 4.125 27.03 4.125 27.015 4.125C26.52 4.125 26.04 4.32 25.68 4.68C25.32 5.04 25.125 5.505 25.125 6.015V15.375Z" fill="#1542E0"/>
<path d="M13.5 34.995C12.795 34.995 12.135 34.725 11.64 34.215L9.15 31.71C9.015 31.575 8.805 31.56 8.655 31.68L6.075 33.6C5.28 34.2 4.23 34.305 3.33 33.855C2.43 33.405 1.875 32.505 1.875 31.5V9C1.875 4.47 4.47 1.875 9 1.875H27C27.615 1.875 28.125 2.385 28.125 3C28.125 3.615 27.615 4.125 27 4.125C25.965 4.125 25.125 4.965 25.125 6V31.5C25.125 32.505 24.57 33.405 23.67 33.855C22.77 34.305 21.72 34.215 20.925 33.615L18.36 31.695C18.21 31.575 18 31.605 17.88 31.725L15.36 34.245C14.865 34.725 14.205 34.995 13.5 34.995ZM8.865 29.355C9.555 29.355 10.23 29.61 10.74 30.135L13.23 32.64C13.32 32.73 13.44 32.745 13.5 32.745C13.56 32.745 13.68 32.73 13.77 32.64L16.29 30.12C17.22 29.19 18.69 29.1 19.725 29.895L22.275 31.8C22.44 31.92 22.59 31.875 22.665 31.83C22.74 31.785 22.875 31.695 22.875 31.5V6C22.875 5.325 23.04 4.68 23.325 4.125H9C5.67 4.125 4.125 5.67 4.125 9V31.5C4.125 31.71 4.26 31.8 4.335 31.845C4.425 31.89 4.575 31.92 4.725 31.8L7.29 29.88C7.755 29.535 8.31 29.355 8.865 29.355Z" fill="#1542E0"/>
<path d="M18 20.6406H13.5C12.885 20.6406 12.375 20.1306 12.375 19.5156C12.375 18.9006 12.885 18.3906 13.5 18.3906H18C18.615 18.3906 19.125 18.9006 19.125 19.5156C19.125 20.1306 18.615 20.6406 18 20.6406Z" fill="#1542E0"/>
<path d="M18 14.6406H13.5C12.885 14.6406 12.375 14.1306 12.375 13.5156C12.375 12.9006 12.885 12.3906 13.5 12.3906H18C18.615 12.3906 19.125 12.9006 19.125 13.5156C19.125 14.1306 18.615 14.6406 18 14.6406Z" fill="#1542E0"/>
<path d="M8.95703 15.0156C8.13203 15.0156 7.45703 14.3406 7.45703 13.5156C7.45703 12.6906 8.13203 12.0156 8.95703 12.0156C9.78203 12.0156 10.457 12.6906 10.457 13.5156C10.457 14.3406 9.78203 15.0156 8.95703 15.0156Z" fill="#1542E0"/>
<path d="M8.95703 21.0156C8.13203 21.0156 7.45703 20.3406 7.45703 19.5156C7.45703 18.6906 8.13203 18.0156 8.95703 18.0156C9.78203 18.0156 10.457 18.6906 10.457 19.5156C10.457 20.3406 9.78203 21.0156 8.95703 21.0156Z" fill="#1542E0"/>
</svg>
