<svg width="36" height="36" viewBox="0 0 36 36" fill="none" xmlns="http://www.w3.org/2000/svg">
<path d="M22.0506 34.1231H13.9506C6.54063 34.1231 3.39062 30.9581 3.39062 23.5631V16.8281C3.39062 16.2131 3.90063 15.7031 4.51563 15.7031C5.13063 15.7031 5.64063 16.2131 5.64063 16.8281V23.5631C5.64063 29.6981 7.81563 31.8731 13.9506 31.8731H22.0356C28.1706 31.8731 30.3456 29.6981 30.3456 23.5631V16.8281C30.3456 16.2131 30.8556 15.7031 31.4706 15.7031C32.0856 15.7031 32.5956 16.2131 32.5956 16.8281V23.5631C32.6106 30.9581 29.4456 34.1231 22.0506 34.1231Z" fill="#1542E0"/>
<path d="M18.0005 19.125C16.3505 19.125 14.8505 18.48 13.7855 17.295C12.7205 16.11 12.2255 14.565 12.3905 12.915L13.3955 2.895C13.4555 2.325 13.9355 1.875 14.5205 1.875H21.5255C22.1105 1.875 22.5905 2.31 22.6505 2.895L23.6555 12.915C23.8205 14.565 23.3255 16.11 22.2605 17.295C21.1505 18.48 19.6505 19.125 18.0005 19.125ZM15.5255 4.125L14.6255 13.14C14.5205 14.145 14.8205 15.09 15.4505 15.78C16.7255 17.19 19.2755 17.19 20.5505 15.78C21.1805 15.075 21.4805 14.13 21.3755 13.14L20.4755 4.125H15.5255Z" fill="#1542E0"/>
<path d="M27.466 19.125C24.421 19.125 21.706 16.665 21.391 13.635L20.341 3.12C20.311 2.805 20.416 2.49 20.626 2.25C20.836 2.01 21.136 1.875 21.466 1.875H26.041C30.451 1.875 32.506 3.72 33.121 8.25L33.541 12.42C33.721 14.19 33.181 15.87 32.026 17.145C30.871 18.42 29.251 19.125 27.466 19.125ZM22.711 4.125L23.641 13.41C23.836 15.285 25.576 16.875 27.466 16.875C28.606 16.875 29.626 16.44 30.361 15.645C31.081 14.85 31.411 13.785 31.306 12.645L30.886 8.52C30.421 5.13 29.326 4.125 26.041 4.125H22.711Z" fill="#1542E0"/>
<path d="M8.46052 19.125C6.67552 19.125 5.05552 18.42 3.90052 17.145C2.74552 15.87 2.20552 14.19 2.38552 12.42L2.79052 8.295C3.42052 3.72 5.47552 1.875 9.88552 1.875H14.4605C14.7755 1.875 15.0755 2.01 15.3005 2.25C15.5255 2.49 15.6155 2.805 15.5855 3.12L14.5355 13.635C14.2205 16.665 11.5055 19.125 8.46052 19.125ZM9.88552 4.125C6.60052 4.125 5.50552 5.115 5.02552 8.55L4.62052 12.645C4.50052 13.785 4.84552 14.85 5.56552 15.645C6.28552 16.44 7.30552 16.875 8.46052 16.875C10.3505 16.875 12.1055 15.285 12.2855 13.41L13.2155 4.125H9.88552Z" fill="#1542E0"/>
<path d="M21.75 34.125H14.25C13.635 34.125 13.125 33.615 13.125 33V29.25C13.125 26.1 14.85 24.375 18 24.375C21.15 24.375 22.875 26.1 22.875 29.25V33C22.875 33.615 22.365 34.125 21.75 34.125ZM15.375 31.875H20.625V29.25C20.625 27.36 19.89 26.625 18 26.625C16.11 26.625 15.375 27.36 15.375 29.25V31.875Z" fill="#1542E0"/>
</svg>
