<svg width="20" height="20" viewBox="0 0 20 20" fill="none" xmlns="http://www.w3.org/2000/svg">
<g clip-path="url(#clip0_1299_1246)">
<path d="M19.5 10C19.5 15.2467 15.2467 19.5 10 19.5C4.7533 19.5 0.5 15.2467 0.5 10C0.5 4.7533 4.7533 0.5 10 0.5C15.2467 0.5 19.5 4.7533 19.5 10ZM10.7941 6.47059C10.7941 5.70714 10.1752 5.08824 9.41177 5.08824C8.64832 5.08824 8.02941 5.70714 8.02941 6.47059V10.5882C8.02941 11.3517 8.64832 11.9706 9.41177 11.9706H13.5294C14.2928 11.9706 14.9118 11.3517 14.9118 10.5882C14.9118 9.82478 14.2928 9.20588 13.5294 9.20588H10.7941V6.47059Z" fill="white" stroke="black"/>
</g>
<defs>
<clipPath id="clip0_1299_1246">
<rect width="20" height="20" fill="white"/>
</clipPath>
</defs>
</svg>
