<svg width="36" height="36" viewBox="0 0 36 36" fill="none" xmlns="http://www.w3.org/2000/svg">
<path d="M18.0022 34.1247C16.9972 34.1247 15.9772 33.8696 15.0772 33.3446L6.16719 28.1996C4.36719 27.1496 3.24219 25.2146 3.24219 23.1296V12.8697C3.24219 10.7847 4.36719 8.84968 6.16719 7.79968L15.0772 2.65469C16.8772 1.60469 19.1122 1.60469 20.9272 2.65469L29.8372 7.79968C31.6372 8.84968 32.7622 10.7847 32.7622 12.8697V23.1296C32.7622 25.2146 31.6372 27.1496 29.8372 28.1996L20.9272 33.3446C20.0272 33.8696 19.0072 34.1247 18.0022 34.1247ZM18.0022 4.12466C17.3872 4.12466 16.7572 4.28967 16.2022 4.60467L7.29219 9.74966C6.18219 10.3947 5.49219 11.5797 5.49219 12.8697V23.1296C5.49219 24.4046 6.18219 25.6047 7.29219 26.2497L16.2022 31.3946C17.3122 32.0396 18.6922 32.0396 19.8022 31.3946L28.7122 26.2497C29.8222 25.6047 30.5122 24.4196 30.5122 23.1296V12.8697C30.5122 11.5947 29.8222 10.3947 28.7122 9.74966L19.8022 4.60467C19.2472 4.28967 18.6172 4.12466 18.0022 4.12466Z" fill="#1542E0"/>
<path d="M17.9989 17.6267C15.4489 17.6267 13.3789 15.5567 13.3789 13.0067C13.3789 10.4567 15.4489 8.38672 17.9989 8.38672C20.5489 8.38672 22.6189 10.4567 22.6189 13.0067C22.6189 15.5567 20.5489 17.6267 17.9989 17.6267ZM17.9989 10.6367C16.6939 10.6367 15.6289 11.7017 15.6289 13.0067C15.6289 14.3117 16.6939 15.3767 17.9989 15.3767C19.3039 15.3767 20.3689 14.3117 20.3689 13.0067C20.3689 11.7017 19.3039 10.6367 17.9989 10.6367Z" fill="#1542E0"/>
<path d="M24 26.1165C23.385 26.1165 22.875 25.6065 22.875 24.9915C22.875 22.9215 20.685 21.2266 18 21.2266C15.315 21.2266 13.125 22.9215 13.125 24.9915C13.125 25.6065 12.615 26.1165 12 26.1165C11.385 26.1165 10.875 25.6065 10.875 24.9915C10.875 21.6765 14.07 18.9766 18 18.9766C21.93 18.9766 25.125 21.6765 25.125 24.9915C25.125 25.6065 24.615 26.1165 24 26.1165Z" fill="#1542E0"/>
</svg>
