<svg width="147" height="63" viewBox="0 0 147 63" fill="none" xmlns="http://www.w3.org/2000/svg">
<g filter="url(#filter0_d_1270_1014)">
<path d="M17.85 41.35C13.7833 41.35 10.5 40.5167 8 38.85C5.53333 37.15 4.3 34.6833 4.3 31.45C4.3 31.1833 4.33333 30.7167 4.4 30.05H14.75C14.65 31.1833 14.8833 32.0667 15.45 32.7C16.0167 33.3333 16.8833 33.65 18.05 33.65C19.0167 33.65 19.7833 33.4333 20.35 33C20.95 32.5667 21.25 31.95 21.25 31.15C21.25 30.2167 20.8167 29.45 19.95 28.85C19.1167 28.25 17.75 27.55 15.85 26.75C13.95 25.95 12.3833 25.2 11.15 24.5C9.91667 23.7667 8.85 22.7833 7.95 21.55C7.05 20.2833 6.6 18.7167 6.6 16.85C6.6 14.4167 7.2 12.3333 8.4 10.6C9.6 8.83333 11.2667 7.5 13.4 6.6C15.5667 5.66667 18.0333 5.2 20.8 5.2C23.3 5.2 25.5167 5.6 27.45 6.4C29.3833 7.16667 30.8833 8.28333 31.95 9.75C33.05 11.2167 33.6 12.95 33.6 14.95C33.6 15.4833 33.5833 15.8833 33.55 16.15H23C23.0333 15.9833 23.05 15.75 23.05 15.45C23.05 14.65 22.8 14.0333 22.3 13.6C21.8 13.1333 21.1167 12.9 20.25 12.9C19.35 12.9 18.6167 13.1333 18.05 13.6C17.5167 14.0333 17.25 14.65 17.25 15.45C17.25 16.3167 17.6667 17.0667 18.5 17.7C19.3667 18.3 20.7 19.0167 22.5 19.85C24.4333 20.75 26.0167 21.6 27.25 22.4C28.5167 23.1667 29.6 24.2 30.5 25.5C31.4 26.8 31.85 28.4 31.85 30.3C31.85 32.4 31.2833 34.3 30.15 36C29.0167 37.6667 27.4 38.9833 25.3 39.95C23.2 40.8833 20.7167 41.35 17.85 41.35ZM45.2418 10.35C43.7085 10.35 42.4918 9.96666 41.5918 9.2C40.7251 8.43333 40.2918 7.45 40.2918 6.25C40.2918 5.18333 40.5751 4.2 41.1418 3.3C41.7418 2.36666 42.5418 1.63333 43.5418 1.1C44.5751 0.533331 45.7251 0.249997 46.9918 0.249997C48.5251 0.249997 49.7251 0.649998 50.5918 1.45C51.4918 2.21667 51.9418 3.21667 51.9418 4.45C51.9418 5.51666 51.6418 6.5 51.0418 7.4C50.4751 8.3 49.6751 9.01667 48.6418 9.55C47.6085 10.0833 46.4751 10.35 45.2418 10.35ZM49.6418 12.95L44.6918 41H34.8418L39.8418 12.95H49.6418ZM64.3227 16.85C65.3227 15.55 66.5893 14.5167 68.1227 13.75C69.656 12.9833 71.3727 12.6 73.2727 12.6C76.206 12.6 78.556 13.5667 80.3227 15.5C82.1227 17.4333 83.0227 20.0833 83.0227 23.45C83.0227 24.5167 82.9227 25.6833 82.7227 26.95C82.1893 29.85 81.206 32.4 79.7727 34.6C78.3393 36.7667 76.606 38.4333 74.5727 39.6C72.5727 40.7667 70.456 41.35 68.2227 41.35C66.3227 41.35 64.7393 40.9667 63.4727 40.2C62.2393 39.4333 61.3393 38.4 60.7727 37.1L57.7227 54.4H47.9227L55.2227 12.95H65.0227L64.3227 16.85ZM72.7227 26.95C72.8227 26.45 72.8727 25.9667 72.8727 25.5C72.8727 24.1333 72.4727 23.0667 71.6727 22.3C70.906 21.5333 69.906 21.15 68.6727 21.15C67.2393 21.15 65.9227 21.6667 64.7227 22.7C63.556 23.7333 62.8227 25.15 62.5227 26.95C62.4227 27.45 62.3727 27.9167 62.3727 28.35C62.3727 29.75 62.756 30.85 63.5227 31.65C64.3227 32.4167 65.3393 32.8 66.5727 32.8C68.0393 32.8 69.356 32.2833 70.5227 31.25C71.6893 30.1833 72.4227 28.75 72.7227 26.95ZM97.257 41.35C94.8237 41.35 92.657 40.8667 90.757 39.9C88.8904 38.9333 87.4404 37.5667 86.407 35.8C85.3737 34.0333 84.857 31.9667 84.857 29.6C84.857 26.4 85.607 23.5 87.107 20.9C88.6404 18.3 90.7404 16.2667 93.407 14.8C96.0737 13.3333 99.057 12.6 102.357 12.6C104.79 12.6 106.94 13.0833 108.807 14.05C110.707 15.0167 112.174 16.4 113.207 18.2C114.274 19.9667 114.807 22.0333 114.807 24.4C114.807 27.6333 114.04 30.55 112.507 33.15C110.974 35.7167 108.874 37.7333 106.207 39.2C103.54 40.6333 100.557 41.35 97.257 41.35ZM98.757 32.9C99.9237 32.9 100.957 32.5333 101.857 31.8C102.79 31.0667 103.49 30.1167 103.957 28.95C104.457 27.7833 104.707 26.5833 104.707 25.35C104.707 23.95 104.34 22.8833 103.607 22.15C102.907 21.4167 101.99 21.05 100.857 21.05C99.657 21.05 98.607 21.4167 97.707 22.15C96.8404 22.8833 96.157 23.8333 95.657 25C95.1904 26.1667 94.957 27.3833 94.957 28.65C94.957 30.05 95.307 31.1167 96.007 31.85C96.707 32.55 97.6237 32.9 98.757 32.9ZM128.244 41.35C125.911 41.35 123.827 41 121.994 40.3C120.161 39.6 118.727 38.6167 117.694 37.35C116.661 36.05 116.144 34.5667 116.144 32.9C116.144 32.6 116.177 32.15 116.244 31.55H125.694C125.661 32.4833 125.944 33.2 126.544 33.7C127.144 34.2 127.977 34.45 129.044 34.45C129.877 34.45 130.561 34.2833 131.094 33.95C131.661 33.6167 131.944 33.1833 131.944 32.65C131.944 32.0167 131.594 31.5333 130.894 31.2C130.194 30.8333 129.027 30.3833 127.394 29.85C125.494 29.25 123.927 28.6667 122.694 28.1C121.461 27.5333 120.377 26.7 119.444 25.6C118.544 24.5 118.094 23.0833 118.094 21.35C118.094 19.6833 118.577 18.1833 119.544 16.85C120.544 15.5167 121.944 14.4833 123.744 13.75C125.544 12.9833 127.627 12.6 129.994 12.6C132.527 12.6 134.711 13.0333 136.544 13.9C138.411 14.7333 139.794 15.9 140.694 17.4C141.627 18.9 142.044 20.5667 141.944 22.4H133.144C133.177 21.5 132.911 20.8 132.344 20.3C131.777 19.7667 130.961 19.5 129.894 19.5C129.127 19.5 128.494 19.6667 127.994 20C127.494 20.3333 127.244 20.7667 127.244 21.3C127.244 21.9333 127.594 22.4333 128.294 22.8C129.027 23.1667 130.244 23.6333 131.944 24.2C133.811 24.8 135.361 25.4 136.594 26C137.861 26.5667 138.944 27.3833 139.844 28.45C140.744 29.4833 141.194 30.8167 141.194 32.45C141.194 35.2167 139.994 37.4 137.594 39C135.194 40.5667 132.077 41.35 128.244 41.35Z" fill="#0797FF"/>
</g>
<defs>
<filter id="filter0_d_1270_1014" x="0.300781" y="0.25" width="145.793" height="62.1484" filterUnits="userSpaceOnUse" color-interpolation-filters="sRGB">
<feFlood flood-opacity="0" result="BackgroundImageFix"/>
<feColorMatrix in="SourceAlpha" type="matrix" values="0 0 0 0 0 0 0 0 0 0 0 0 0 0 0 0 0 0 127 0" result="hardAlpha"/>
<feOffset dy="4"/>
<feGaussianBlur stdDeviation="2"/>
<feComposite in2="hardAlpha" operator="out"/>
<feColorMatrix type="matrix" values="0 0 0 0 0 0 0 0 0 0 0 0 0 0 0 0 0 0 0.25 0"/>
<feBlend mode="normal" in2="BackgroundImageFix" result="effect1_dropShadow_1270_1014"/>
<feBlend mode="normal" in="SourceGraphic" in2="effect1_dropShadow_1270_1014" result="shape"/>
</filter>
</defs>
</svg>
